<svg width="69" height="45" viewBox="0 0 69 45" fill="none" xmlns="http://www.w3.org/2000/svg">
<path d="M17.8114 38.6229H19.8985V32.758H21.8187C22.6327 32.758 22.904 32.8624 23.2797 33.5511L25.2834 37.5167C25.7634 38.4768 26.1809 38.6229 27.3288 38.6229H28.3515V36.828H28.0802C27.5792 36.828 27.2453 36.7862 27.0366 36.3479L25.2625 32.8206C25.0121 32.3406 24.6364 32.1527 24.6364 32.1527V32.111C25.6799 31.8814 27.287 30.6709 27.287 28.208C27.287 25.5156 25.4712 23.8876 22.8832 23.8876H16.4547V25.6826H17.8114V38.6229ZM19.8985 30.9631V25.6826H22.6536C24.1981 25.6826 25.1373 26.6427 25.1373 28.2915C25.1373 29.9404 24.1981 30.9631 22.6118 30.9631H19.8985ZM29.2121 31.1509C29.2121 35.4922 32.5098 38.8734 36.7676 38.8734C41.0254 38.8734 44.344 35.4922 44.344 31.1509C44.344 26.914 41.0254 23.6372 36.7676 23.6372C32.5098 23.6372 29.2121 26.914 29.2121 31.1509ZM31.3828 31.1509C31.3828 27.9993 33.783 25.5782 36.7676 25.5782C39.7522 25.5782 42.1733 27.9993 42.1733 31.1509C42.1733 34.4069 39.7522 36.9114 36.7676 36.9114C33.783 36.9114 31.3828 34.4069 31.3828 31.1509ZM45.7626 36.6819C45.7626 36.6819 47.5158 38.8734 50.6465 38.8734C53.5685 38.8734 55.3217 36.9323 55.3217 34.6782C55.3217 29.836 48.2254 30.5039 48.2254 27.5193C48.2254 26.4131 49.2272 25.5365 50.8135 25.5365C51.9823 25.5365 53.0885 26.1 53.0885 26.8723V27.561H55.0086V26.3505C55.0086 24.3468 52.3788 23.6372 50.8135 23.6372C48.0376 23.6372 46.0965 25.3695 46.0965 27.5819C46.0965 32.1736 53.2137 31.6936 53.2137 34.7826C53.2137 36.1392 52.0658 36.9741 50.6882 36.9741C48.4967 36.9741 46.994 35.2 46.994 35.2L45.7626 36.6819ZM58.3314 37.2871C58.3314 38.2264 58.728 38.6229 59.6672 38.6229H66.2209C67.1601 38.6229 67.5566 38.2264 67.5566 37.2871V35.4296H65.6365V36.3688C65.6365 36.661 65.4695 36.828 65.1773 36.828H60.8778C60.5856 36.828 60.4186 36.661 60.4186 36.3688V32.0901H65.5739V30.2952H60.4186V25.6826H64.6138C64.906 25.6826 65.0729 25.8287 65.0729 26.1418V27.081H66.9722V25.2234C66.9722 24.2842 66.5757 23.8876 65.6365 23.8876H56.9748V25.6826H58.3314V37.2871Z" fill="#384001"/>
<g clip-path="url(#clip0)">
<path d="M16.266 8.17701C15.6675 8.10012 15.0937 8.04676 14.5456 8.01342C13.2324 7.93333 12.0466 8.00402 11.017 8.11C10.3523 8.17871 10.1062 8.2264 9.20895 8.38781C7.14078 8.75196 5.65081 9.6586 4.95419 11.5731C4.16705 13.7365 5.24651 15.8346 7.83398 16.776C10.4215 17.7175 12.6432 16.6761 13.4304 14.5127C14.2175 12.3494 12.9766 10.2032 16.266 8.17701Z" stroke="#384001" stroke-width="1.232" stroke-linecap="round" stroke-linejoin="round"/>
<path d="M11.2612 8.08574C10.9724 7.08575 10.5551 6.54645 10.2149 6.16079C9.07165 4.86648 7.24048 3.83229 7.24048 3.83229C7.98978 5.55337 7.36975 6.8657 6.81391 7.91965C6.81391 7.91965 6.35046 8.84084 6.24775 9.64966" stroke="#384001" stroke-width="1.232" stroke-linecap="round" stroke-linejoin="round"/>
<path d="M14.8595 8.03477C14.7966 6.80041 14.6062 5.45173 14.6062 5.45173C14.6062 5.45173 12.7528 4.77737 9.95292 5.8799" stroke="#384001" stroke-width="1.232" stroke-linecap="round" stroke-linejoin="round"/>
<path d="M11.9398 5.26281C11.4412 3.69724 10.2638 2.81111 10.2638 2.81111C9.59446 3.25698 8.8718 4.01424 8.45325 4.6107" stroke="#384001" stroke-width="1.232" stroke-linecap="round" stroke-linejoin="round"/>
</g>
<path d="M7.9278 16.6217C7.9278 16.6217 5.5835 18.4912 6.53596 21.3756C7.60085 24.6006 13.5813 24.9231 12.2108 27.3501C11.1829 29.1703 4.95153 28.2266 4.95147 31.376C4.95143 33.8376 10.8927 33.4444 11.4725 35.7635C12.0522 38.0825 8.57367 36.923 7.92779 39.2421M7.92779 39.2421C7.2319 41.851 6.53601 44.4599 6.53601 44.4599L7.92779 39.2421Z" stroke="#384001" stroke-width="1.15953"/>
<path d="M13.5269 35.4186C12.8695 35.7751 12.1306 35.556 11.8446 35.0286C11.5586 34.5012 11.778 33.7624 12.4354 33.4059C12.5442 33.3469 12.7689 33.3097 13.128 33.3141C13.4343 33.3179 13.7782 33.3494 14.1321 33.3818C14.1734 33.3856 14.2149 33.3894 14.2564 33.3932C14.6401 33.4279 15.0414 33.4613 15.3648 33.442C15.3955 33.4401 15.4264 33.4378 15.4575 33.4348C15.4131 33.4928 15.3656 33.5533 15.3154 33.616C15.0165 33.9888 14.651 34.3985 14.312 34.7405C13.9604 35.0951 13.6741 35.3388 13.5269 35.4186Z" stroke="#384001" stroke-width="0.756953"/>
<path d="M14.0315 25.3259C13.3741 25.6824 12.6353 25.4633 12.3492 24.9359C12.0632 24.4085 12.2826 23.6697 12.9401 23.3132C13.0489 23.2542 13.2736 23.217 13.6326 23.2214C13.939 23.2252 14.2829 23.2567 14.6367 23.2891C14.678 23.2929 14.7195 23.2967 14.7611 23.3005C15.1448 23.3352 15.546 23.3686 15.8695 23.3492C15.9001 23.3474 15.9311 23.3451 15.9621 23.3421C15.9177 23.4001 15.8703 23.4606 15.82 23.5233C15.5211 23.8961 15.1556 24.3058 14.8166 24.6477C14.4651 25.0023 14.1788 25.2461 14.0315 25.3259Z" stroke="#384001" stroke-width="0.756953"/>
<path d="M3.59419 30.3723C4.25162 30.7288 4.99048 30.5097 5.27649 29.9822C5.56251 29.4548 5.34311 28.716 4.68568 28.3595C4.57687 28.3005 4.35215 28.2634 3.99312 28.2678C3.68678 28.2716 3.34288 28.3031 2.98904 28.3355C2.9477 28.3392 2.90623 28.343 2.86467 28.3468C2.48097 28.3816 2.07969 28.4149 1.75624 28.3956C1.7256 28.3938 1.69465 28.3914 1.66359 28.3884C1.70803 28.4464 1.75546 28.5069 1.80574 28.5697C2.10458 28.9424 2.47013 29.3522 2.80913 29.6941C3.16068 30.0487 3.44695 30.2924 3.59419 30.3723Z" stroke="#384001" stroke-width="0.756953"/>
<defs>
<clipPath id="clip0">
<rect width="15.9474" height="15.9474" fill="white" transform="translate(5.45288) rotate(19.9942)"/>
</clipPath>
</defs>
</svg>
