<svg width="18" height="12" viewBox="0 0 18 12" fill="none" xmlns="http://www.w3.org/2000/svg">
<mask id="path-1-inside-1" fill="white">
<path fill-rule="evenodd" clip-rule="evenodd" d="M0 0H18V2H0V0ZM0 5H18V7H0V5ZM18 10H0V12H18V10Z"/>
</mask>
<path fill-rule="evenodd" clip-rule="evenodd" d="M0 0H18V2H0V0ZM0 5H18V7H0V5ZM18 10H0V12H18V10Z" fill="#384001"/>
<path d="M18 0H19V-1H18V0ZM0 0V-1H-1V0H0ZM18 2V3H19V2H18ZM0 2H-1V3H0V2ZM18 5H19V4H18V5ZM0 5V4H-1V5H0ZM18 7V8H19V7H18ZM0 7H-1V8H0V7ZM0 10V9H-1V10H0ZM18 10H19V9H18V10ZM0 12H-1V13H0V12ZM18 12V13H19V12H18ZM18 -1H0V1H18V-1ZM19 2V0H17V2H19ZM0 3H18V1H0V3ZM-1 0V2H1V0H-1ZM18 4H0V6H18V4ZM19 7V5H17V7H19ZM0 8H18V6H0V8ZM-1 5V7H1V5H-1ZM0 11H18V9H0V11ZM1 12V10H-1V12H1ZM18 11H0V13H18V11ZM17 10V12H19V10H17Z" fill="#384001" mask="url(#path-1-inside-1)"/>
</svg>



