<svg width="14" height="16" viewBox="0 0 14 16" fill="none" xmlns="http://www.w3.org/2000/svg">
<path d="M7.00005 -1.52588e-05C4.68417 -1.52588e-05 2.80005 1.8841 2.80005 4.19999C2.80005 6.51587 4.68417 8.39999 7.00005 8.39999C9.31593 8.39999 11.2 6.51587 11.2 4.19999C11.2 1.8841 9.31593 -1.52588e-05 7.00005 -1.52588e-05Z" fill="#384001"/>
<path d="M12.2256 11.1438C11.0757 9.97629 9.55139 9.33331 7.93333 9.33331H6.06667C4.44864 9.33331 2.92426 9.97629 1.77439 11.1438C0.630156 12.3056 0 13.8392 0 15.4622C0 15.7199 0.208942 15.9289 0.466667 15.9289H13.5333C13.7911 15.9289 14 15.7199 14 15.4622C14 13.8392 13.3698 12.3056 12.2256 11.1438Z" fill="#384001"/>
</svg>
