<svg width="35" height="23" viewBox="0 0 35 23" fill="none" xmlns="http://www.w3.org/2000/svg">
<path d="M9.0348 19.4463H10.0935V16.4713H11.0675C11.4804 16.4713 11.618 16.5243 11.8086 16.8736L12.8249 18.8852C13.0684 19.3722 13.2802 19.4463 13.8625 19.4463H14.3812V18.5358H14.2436C13.9895 18.5358 13.8201 18.5146 13.7142 18.2923L12.8144 16.5031C12.6873 16.2596 12.4967 16.1643 12.4967 16.1643V16.1431C13.0261 16.0267 13.8413 15.4126 13.8413 14.1634C13.8413 12.7977 12.9202 11.9719 11.6074 11.9719H8.34664V12.8824H9.0348V19.4463ZM10.0935 15.5609V12.8824H11.491C12.2744 12.8824 12.7508 13.3694 12.7508 14.2057C12.7508 15.0421 12.2744 15.5609 11.4698 15.5609H10.0935ZM14.8178 15.6561C14.8178 17.8582 16.4905 19.5733 18.6503 19.5733C20.81 19.5733 22.4933 17.8582 22.4933 15.6561C22.4933 13.507 20.81 11.8448 18.6503 11.8448C16.4905 11.8448 14.8178 13.507 14.8178 15.6561ZM15.9188 15.6561C15.9188 14.0575 17.1363 12.8294 18.6503 12.8294C20.1642 12.8294 21.3923 14.0575 21.3923 15.6561C21.3923 17.3077 20.1642 18.5782 18.6503 18.5782C17.1363 18.5782 15.9188 17.3077 15.9188 15.6561ZM23.2129 18.4617C23.2129 18.4617 24.1022 19.5733 25.6903 19.5733C27.1725 19.5733 28.0618 18.5887 28.0618 17.4453C28.0618 14.9892 24.4622 15.3279 24.4622 13.814C24.4622 13.2529 24.9704 12.8082 25.775 12.8082C26.3679 12.8082 26.929 13.0941 26.929 13.4858V13.8352H27.903V13.2211C27.903 12.2048 26.569 11.8448 25.775 11.8448C24.3669 11.8448 23.3823 12.7235 23.3823 13.8458C23.3823 16.1749 26.9925 15.9314 26.9925 17.4983C26.9925 18.1864 26.4102 18.6099 25.7115 18.6099C24.5998 18.6099 23.8376 17.71 23.8376 17.71L23.2129 18.4617ZM29.5885 18.7687C29.5885 19.2451 29.7896 19.4463 30.266 19.4463H33.5903C34.0668 19.4463 34.2679 19.2451 34.2679 18.7687V17.8265H33.2939V18.3029C33.2939 18.4511 33.2092 18.5358 33.061 18.5358H30.8801C30.7318 18.5358 30.6472 18.4511 30.6472 18.3029V16.1326H33.2621V15.2221H30.6472V12.8824H32.7751C32.9234 12.8824 33.0081 12.9565 33.0081 13.1153V13.5917H33.9715V12.6494C33.9715 12.173 33.7703 11.9719 33.2939 11.9719H28.9003V12.8824H29.5885V18.7687Z" fill="#FAFBFC"/>
<g clip-path="url(#clip0)">
<path d="M8.25083 4.14764C7.94726 4.10864 7.65616 4.08157 7.37818 4.06466C6.71204 4.02404 6.11055 4.05989 5.58829 4.11365C5.25112 4.1485 5.12631 4.1727 4.67116 4.25457C3.62209 4.43928 2.86631 4.89917 2.51295 5.87032C2.11367 6.96767 2.66123 8.03192 3.97371 8.50947C5.2862 8.98703 6.41319 8.45877 6.81247 7.36142C7.21175 6.26407 6.58229 5.1754 8.25083 4.14764Z" stroke="#FAFBFC" stroke-width="0.624927" stroke-linecap="round" stroke-linejoin="round"/>
<path d="M5.71211 4.1014C5.56563 3.59415 5.35396 3.3206 5.18136 3.12497C4.60146 2.46844 3.67261 1.94385 3.67261 1.94385C4.05269 2.81686 3.73818 3.48253 3.45623 4.01715C3.45623 4.01715 3.22115 4.48441 3.16905 4.89469" stroke="#FAFBFC" stroke-width="0.624927" stroke-linecap="round" stroke-linejoin="round"/>
<path d="M7.53741 4.07549C7.50547 3.44936 7.40889 2.76525 7.40889 2.76525C7.40889 2.76525 6.46877 2.42318 5.04855 2.98244" stroke="#FAFBFC" stroke-width="0.624927" stroke-linecap="round" stroke-linejoin="round"/>
<path d="M6.05635 2.66954C5.80342 1.87541 5.2062 1.42592 5.2062 1.42592C4.86667 1.65209 4.5001 2.03621 4.2878 2.33876" stroke="#FAFBFC" stroke-width="0.624927" stroke-linecap="round" stroke-linejoin="round"/>
</g>
<path d="M4.02133 8.43124C4.02133 8.43124 2.8322 9.37954 3.31533 10.8427C3.85549 12.4785 6.88906 12.6421 6.19387 13.8732C5.67247 14.7965 2.51163 14.3178 2.5116 15.9153C2.51158 17.1639 5.52526 16.9645 5.81935 18.1408C6.11343 19.3172 4.34895 18.729 4.02133 19.9053M4.02133 19.9053C3.66834 21.2287 3.31535 22.5521 3.31535 22.5521L4.02133 19.9053Z" stroke="#FAFBFC" stroke-width="0.588166"/>
<path d="M6.86136 17.9659C6.52788 18.1467 6.1531 18.0356 6.00801 17.768C5.86293 17.5005 5.97422 17.1258 6.3077 16.9449C6.3629 16.915 6.47688 16.8962 6.659 16.8984C6.81439 16.9003 6.98883 16.9163 7.16832 16.9327C7.18928 16.9346 7.21032 16.9366 7.2314 16.9385C7.42603 16.9561 7.62958 16.973 7.79365 16.9632C7.80919 16.9623 7.82489 16.9611 7.84065 16.9596C7.81811 16.989 7.79404 17.0197 7.76854 17.0515C7.61695 17.2406 7.43153 17.4484 7.25957 17.6219C7.08125 17.8018 6.93604 17.9254 6.86136 17.9659Z" stroke="#FAFBFC" stroke-width="0.383962"/>
<path d="M7.11746 12.8465C6.78398 13.0273 6.4092 12.9162 6.26412 12.6487C6.11904 12.3811 6.23033 12.0064 6.56381 11.8255C6.619 11.7956 6.73299 11.7768 6.9151 11.779C7.0705 11.7809 7.24494 11.7969 7.42442 11.8133C7.44539 11.8153 7.46642 11.8172 7.48751 11.8191C7.68214 11.8367 7.88569 11.8536 8.04975 11.8438C8.0653 11.8429 8.081 11.8417 8.09675 11.8402C8.07421 11.8696 8.05015 11.9003 8.02464 11.9321C7.87306 12.1212 7.68764 12.329 7.51568 12.5025C7.33736 12.6824 7.19215 12.806 7.11746 12.8465Z" stroke="#FAFBFC" stroke-width="0.383962"/>
<path d="M1.82321 15.4063C2.15669 15.5872 2.53147 15.476 2.67656 15.2085C2.82164 14.9409 2.71035 14.5662 2.37687 14.3854C2.32167 14.3554 2.20769 14.3366 2.02557 14.3388C1.87018 14.3407 1.69574 14.3567 1.51625 14.3731C1.49529 14.3751 1.47425 14.377 1.45317 14.3789C1.25854 14.3965 1.05499 14.4135 0.890923 14.4037C0.875378 14.4027 0.859679 14.4015 0.843924 14.4C0.866464 14.4294 0.890526 14.4601 0.916029 14.4919C1.06762 14.681 1.25304 14.8889 1.425 15.0623C1.60332 15.2422 1.74853 15.3658 1.82321 15.4063Z" stroke="#FAFBFC" stroke-width="0.383962"/>
<defs>
<clipPath id="clip0">
<rect width="8.08928" height="8.08928" fill="white" transform="translate(2.76587) rotate(19.9942)"/>
</clipPath>
</defs>
</svg>
