<svg width="46" height="9" viewBox="0 0 46 9" fill="none" xmlns="http://www.w3.org/2000/svg">
<path d="M4.69388 7.23316L7.5947 9L6.8249 5.67L9.38776 3.42947L6.01286 3.14053L4.69388 0L3.3749 3.14053L0 3.42947L2.56286 5.67L1.79306 9L4.69388 7.23316Z" fill="#E0D700"/>
<path d="M14.0816 7.23316L16.9824 9L16.2126 5.67L18.7755 3.42947L15.4006 3.14053L14.0816 0L12.7626 3.14053L9.3877 3.42947L11.9506 5.67L11.1808 9L14.0816 7.23316Z" fill="#E0D700"/>
<path d="M23.4695 7.23316L26.3703 9L25.6005 5.67L28.1634 3.42947L24.7885 3.14053L23.4695 0L22.1505 3.14053L18.7756 3.42947L21.3385 5.67L20.5687 9L23.4695 7.23316Z" fill="#E0D700"/>
<path d="M32.8572 7.23316L35.758 9L34.9882 5.67L37.5511 3.42947L34.1762 3.14053L32.8572 0L31.5382 3.14053L28.1633 3.42947L30.7262 5.67L29.9564 9L32.8572 7.23316Z" fill="#E0D700"/>
<path d="M41.3062 7.23316L44.207 9L43.4372 5.67L46.0001 3.42947L42.6252 3.14053L41.3062 0L39.9872 3.14053L36.6123 3.42947L39.1752 5.67L38.4054 9L41.3062 7.23316Z" fill="#E0D700"/>
</svg>
